<?xml version="1.0" encoding="iso-8859-1"?>
<!-- Generator: Adobe Illustrator 18.0.0, SVG Export Plug-In . SVG Version: 6.00 Build 0)  -->
<!DOCTYPE svg PUBLIC "-//W3C//DTD SVG 1.1//EN" "http://www.w3.org/Graphics/SVG/1.1/DTD/svg11.dtd">
<svg version="1.1" id="Capa_1" xmlns="http://www.w3.org/2000/svg" xmlns:xlink="http://www.w3.org/1999/xlink" x="0px" y="0px"
	 viewBox="0 0 61.316 61.316" style="enable-background:new 0 0 61.316 61.316;" xml:space="preserve">
<path d="M4.853,36.222c-1.508-0.027-4.639,1.74-4.847-1.764c-0.164-2.762,2.965-1.873,4.832-2.265
	c1.28-0.269,3.494-0.789,3.554-1.374c0.293-2.882,2.307-6.023-0.481-8.699c-1.475-1.416-3.214-2.574-4.575-4.082
	c-0.477-0.528-0.411-1.838-0.13-2.625c0.122-0.342,1.411-0.286,2.175-0.366c0.178-0.019,0.389,0.126,0.561,0.233
	c1.717,1.077,3.918,3.429,5.044,2.992c2.728-1.056,5.025-3.324,7.323-5.306c0.486-0.419,0.457-1.753,0.259-2.567
	c-0.234-0.963-1.087-1.772-1.33-2.735c-0.167-0.661,0.153-1.516,0.477-2.175c0.071-0.145,1.241-0.014,1.634,0.314
	c1.252,1.044,2.23,2.485,3.596,3.301c1.09,0.649,2.684,0.993,3.874,0.712c0.604-0.143,0.985-1.938,1.154-3.035
	c0.216-1.403-0.038-2.885,0.226-4.273c0.117-0.614,1.043-1.531,1.544-1.496c0.591,0.041,1.406,0.875,1.613,1.527
	c0.363,1.147,0.459,2.419,0.452,3.638c-0.016,2.914,1.269,4.392,4.204,5.038c2.689,0.591,4.633,0.644,5.967-2.263
	c0.748-1.631,2.042-3.058,3.295-4.383c0.417-0.441,1.651-0.602,2.178-0.304c0.489,0.277,0.924,1.504,0.704,2.026
	c-0.87,2.059-2.111,3.959-2.998,6.012c-0.424,0.981-0.884,2.539-0.421,3.196c1.25,1.77,2.451,0.144,3.56-0.598
	c1.699-1.135,3.33-2.375,5.072-3.434c0.411-0.251,1.509-0.161,1.664,0.119c0.334,0.604,0.602,1.658,0.291,2.129
	c-0.887,1.345-2.013,2.555-3.167,3.694c-1.148,1.135-3.373,2.025-3.491,3.188c-0.282,2.774,0.313,5.661,0.798,8.46
	c0.063,0.362,1.595,0.737,2.398,0.652c2.431-0.256,4.83-0.887,7.262-1.039c0.74-0.046,2.094,0.909,2.181,1.542
	c0.101,0.731-0.759,2.179-1.424,2.329c-2.758,0.622-5.599,1.15-8.411,1.157c-1.732,0.005-3.008,0.248-3.013,1.956
	c-0.002,0.785,1.167,1.871,2.055,2.299c1.698,0.815,5.039,0.28,4.346,3.071c-0.751,3.028-3.745,1.34-5.815,1.045
	c-1.907-0.272-3.541-0.348-4.987,1.359c-1.483,1.752-1.738,3.073,0.31,4.509c1.336,0.937,2.694,1.937,3.729,3.171
	c0.511,0.609,0.729,2.147,0.32,2.662c-0.454,0.571-2.03,0.909-2.668,0.55c-1.937-1.088-3.782-2.424-5.421-3.927
	c-1.35-1.238-2.501-1.794-4.343-1.057c-2.137,0.856-1.785,2.427-1.633,4.065c0.169,1.816,0.433,3.643,0.359,5.453
	c-0.022,0.534-1.014,1.386-1.622,1.441c-0.615,0.057-1.595-0.543-1.892-1.123c-0.443-0.863-0.352-1.983-0.625-2.956
	c-0.575-2.047,1.213-5.143-2.863-5.643c-3.677-0.451-3.817,2.124-4.515,4.433c-0.231,0.766-0.502,1.581-0.991,2.184
	c-0.309,0.381-1.104,0.638-1.587,0.53c-0.467-0.104-1.161-0.752-1.154-1.151c0.027-1.613,0.37-3.22,0.43-4.836
	c0.042-1.125,0.199-2.554-0.386-3.323c-0.958-1.262-2.406-2.744-3.781-2.893c-0.983-0.106-2.208,1.794-3.282,2.845
	c-0.728,0.714-1.274,1.668-2.102,2.206c-0.58,0.377-1.934,0.569-2.174,0.256c-0.521-0.681-0.976-1.914-0.691-2.606
	c0.611-1.485,1.594-2.864,2.632-4.115c1.539-1.854,2.601-3.534,0.937-5.981C9.479,35.819,9.642,35.709,4.853,36.222z M44.285,28.35
	c-0.013-4.924-1.294-7.361-4.438-10.253c-5.442-5.008-16.937-3.339-21.546,0.24c-4.561,3.543-5.751,10.041-3.321,16.21
	c2.841,7.216,8.589,11.595,14.571,11.09c0.609-0.052,1.216-0.16,1.815-0.286C39.362,43.663,44.308,37.149,44.285,28.35z"/>
<g>
</g>
<g>
</g>
<g>
</g>
<g>
</g>
<g>
</g>
<g>
</g>
<g>
</g>
<g>
</g>
<g>
</g>
<g>
</g>
<g>
</g>
<g>
</g>
<g>
</g>
<g>
</g>
<g>
</g>
</svg>
